<svg xmlns="http://www.w3.org/2000/svg" xmlns:xlink="http://www.w3.org/1999/xlink" width="500" zoomAndPan="magnify" viewBox="0 0 375 374.999991" height="500" preserveAspectRatio="xMidYMid meet" version="1.2"><defs><filter x="0%" y="0%" width="100%" filterUnits="objectBoundingBox" id="94741258f5" height="100%"><feColorMatrix values="0 0 0 0 1 0 0 0 0 1 0 0 0 0 1 0 0 0 1 0" type="matrix" in="SourceGraphic"/></filter><clipPath id="e04c502141"><path d="M 0.59375 1.074219 L 332 1.074219 L 332 332.480469 L 0.59375 332.480469 Z M 0.59375 1.074219 "/></clipPath><clipPath id="d466b7b857"><path d="M 2.101562 1.074219 L 330.492188 1.074219 C 331.324219 1.074219 332 1.75 332 2.582031 L 332 330.972656 C 332 331.804688 331.324219 332.480469 330.492188 332.480469 L 2.101562 332.480469 C 1.269531 332.480469 0.59375 331.804688 0.59375 330.972656 L 0.59375 2.582031 C 0.59375 1.75 1.269531 1.074219 2.101562 1.074219 Z M 2.101562 1.074219 "/></clipPath><clipPath id="61d4f28887"><rect x="0" width="332" y="0" height="333"/></clipPath><clipPath id="5a445a0f9e"><path d="M 1.015625 0.875 L 332.421875 0.875 L 332.421875 332.28125 L 1.015625 332.28125 Z M 1.015625 0.875 "/></clipPath><clipPath id="f2c9c625db"><path d="M 2.523438 0.875 L 330.914062 0.875 C 331.746094 0.875 332.421875 1.550781 332.421875 2.382812 L 332.421875 330.773438 C 332.421875 331.605469 331.746094 332.28125 330.914062 332.28125 L 2.523438 332.28125 C 1.691406 332.28125 1.015625 331.605469 1.015625 330.773438 L 1.015625 2.382812 C 1.015625 1.550781 1.691406 0.875 2.523438 0.875 Z M 2.523438 0.875 "/></clipPath><clipPath id="19b8e61df6"><rect x="0" width="333" y="0" height="333"/></clipPath><clipPath id="a12d7e666d"><path d="M 0 0.519531 L 331.40625 0.519531 L 331.40625 331.925781 L 0 331.925781 Z M 0 0.519531 "/></clipPath><clipPath id="a91383f20f"><path d="M 1.507812 0.519531 L 329.898438 0.519531 C 330.730469 0.519531 331.40625 1.195312 331.40625 2.027344 L 331.40625 330.417969 C 331.40625 331.25 330.730469 331.925781 329.898438 331.925781 L 1.507812 331.925781 C 0.675781 331.925781 0 331.25 0 330.417969 L 0 2.027344 C 0 1.195312 0.675781 0.519531 1.507812 0.519531 Z M 1.507812 0.519531 "/></clipPath><clipPath id="d16f992337"><rect x="0" width="332" y="0" height="333"/></clipPath><clipPath id="8394af44fe"><path d="M 31.160156 73.679688 L 300.410156 73.679688 L 300.410156 342.929688 L 31.160156 342.929688 Z M 31.160156 73.679688 "/></clipPath></defs><g id="9556c1bee1"><g mask="url(#b7b23d9fe6)" transform="matrix(1,0,0,1,43,0)"><g clip-path="url(#61d4f28887)"><g clip-rule="nonzero" clip-path="url(#e04c502141)"><g clip-rule="nonzero" clip-path="url(#d466b7b857)"><path style=" stroke:none;fill-rule:nonzero;fill:#7feffd;fill-opacity:1;" d="M 0.59375 1.074219 L 332 1.074219 L 332 332.480469 L 0.59375 332.480469 Z M 0.59375 1.074219 "/></g></g></g><mask id="b7b23d9fe6"><g filter="url(#94741258f5)"><rect x="0" width="375" y="0" height="374.999991" style="fill:#000000;fill-opacity:0.9;stroke:none;"/></g></mask></g><g mask="url(#078431c0e3)" transform="matrix(1,0,0,1,22,19)"><g clip-path="url(#19b8e61df6)"><g clip-rule="nonzero" clip-path="url(#5a445a0f9e)"><g clip-rule="nonzero" clip-path="url(#f2c9c625db)"><path style=" stroke:none;fill-rule:nonzero;fill:#3ec5fd;fill-opacity:1;" d="M 1.015625 0.875 L 332.421875 0.875 L 332.421875 332.28125 L 1.015625 332.28125 Z M 1.015625 0.875 "/></g></g></g><mask id="078431c0e3"><g filter="url(#94741258f5)"><rect x="0" width="375" y="0" height="374.999991" style="fill:#000000;fill-opacity:0.9;stroke:none;"/></g></mask></g><g mask="url(#6fda184559)" transform="matrix(1,0,0,1,0,42)"><g clip-path="url(#d16f992337)"><g clip-rule="nonzero" clip-path="url(#a12d7e666d)"><g clip-rule="nonzero" clip-path="url(#a91383f20f)"><path style=" stroke:none;fill-rule:nonzero;fill:#3993fe;fill-opacity:1;" d="M 0 0.519531 L 331.40625 0.519531 L 331.40625 331.925781 L 0 331.925781 Z M 0 0.519531 "/></g></g></g><mask id="6fda184559"><g filter="url(#94741258f5)"><rect x="0" width="375" y="0" height="374.999991" style="fill:#000000;fill-opacity:0.9;stroke:none;"/></g></mask></g><g clip-rule="nonzero" clip-path="url(#8394af44fe)"><path style=" stroke:none;fill-rule:nonzero;fill:#ffffff;fill-opacity:1;" d="M 300.246094 208.222656 C 300.246094 193.085938 289.820312 178.417969 270.886719 166.777344 C 277.75 145.871094 277.828125 128.410156 271.128906 116.0625 C 272.769531 113.902344 273.699219 111.316406 273.699219 108.570312 C 273.699219 101.683594 268.105469 96.078125 261.226562 96.078125 C 257.664062 96.078125 254.300781 97.609375 251.933594 100.230469 C 240.160156 96.292969 224.75 97.253906 207.144531 103.03125 C 195.5 84.101562 180.835938 73.679688 165.703125 73.679688 C 150.566406 73.679688 135.898438 84.105469 124.253906 103.039062 C 98.554688 94.59375 77.867188 96.472656 65.90625 108.433594 C 61.070312 113.289062 57.878906 119.578125 56.355469 127.113281 C 49.5 127.136719 43.929688 132.730469 43.929688 139.605469 C 43.929688 146.480469 49.523438 152.074219 56.402344 152.074219 C 56.507812 152.074219 56.605469 152.0625 56.710938 152.0625 C 57.570312 156.765625 58.839844 161.691406 60.5 166.773438 C 41.578125 178.421875 31.160156 193.089844 31.160156 208.222656 C 31.160156 223.359375 41.585938 238.023438 60.519531 249.667969 C 52.074219 275.367188 53.953125 296.050781 65.910156 308.007812 C 72.960938 315.0625 83.039062 318.617188 95.394531 318.617188 C 103.992188 318.617188 113.707031 316.871094 124.257812 313.402344 C 135.902344 332.339844 150.566406 342.765625 165.703125 342.765625 C 180.839844 342.765625 195.507812 332.335938 207.144531 313.40625 C 217.695312 316.871094 227.40625 318.617188 236.007812 318.617188 C 248.359375 318.617188 258.441406 315.0625 265.488281 308.011719 C 277.445312 296.054688 279.328125 275.367188 270.878906 249.667969 C 289.820312 238.023438 300.246094 223.359375 300.246094 208.222656 Z M 217.113281 280.71875 C 215.988281 280.398438 214.820312 280.210938 213.644531 280.210938 C 206.757812 280.210938 201.152344 285.808594 201.152344 292.683594 C 201.152344 297.328125 203.792969 301.535156 207.753906 303.664062 C 206.910156 305.300781 206.085938 306.816406 205.265625 308.246094 C 193.859375 304.195312 181.886719 298.257812 169.617188 290.554688 C 177.476562 285.292969 185.277344 279.46875 192.855469 273.144531 C 202.464844 272.171875 211.742188 270.6875 220.539062 268.761719 C 219.507812 272.863281 218.359375 276.863281 217.113281 280.71875 Z M 126.164062 308.234375 C 119.921875 297.347656 114.6875 283.804688 110.886719 268.761719 C 119.675781 270.6875 128.945312 272.167969 138.546875 273.144531 C 146.121094 279.460938 153.925781 285.289062 161.789062 290.550781 C 149.523438 298.25 137.566406 304.1875 126.164062 308.234375 Z M 126.164062 108.207031 C 137.605469 112.269531 149.570312 118.210938 161.804688 125.90625 C 154.054688 131.070312 146.253906 136.886719 138.550781 143.296875 C 128.953125 144.269531 119.679688 145.753906 110.886719 147.679688 C 114.6875 132.640625 119.921875 119.101562 126.164062 108.207031 Z M 205.242188 108.207031 C 211.480469 119.097656 216.71875 132.640625 220.515625 147.679688 C 211.722656 145.753906 202.453125 144.269531 192.855469 143.296875 C 185.207031 136.917969 177.414062 131.097656 169.636719 125.910156 C 181.890625 118.199219 193.84375 112.253906 205.242188 108.207031 Z M 198.632812 268.183594 C 203.375 264 208.042969 259.617188 212.570312 255.09375 C 217.125 250.539062 221.503906 245.867188 225.65625 241.152344 C 224.664062 249.105469 223.316406 256.804688 221.632812 264.148438 C 214.300781 265.832031 206.601562 267.183594 198.632812 268.183594 Z M 109.773438 264.148438 C 108.070312 256.730469 106.714844 249.015625 105.730469 241.117188 C 109.925781 245.882812 114.308594 250.566406 118.832031 255.089844 C 123.359375 259.617188 128.03125 264 132.769531 268.183594 C 124.804688 267.183594 117.105469 265.832031 109.773438 264.148438 Z M 132.777344 148.257812 C 128.101562 152.386719 123.429688 156.765625 118.828125 161.351562 C 114.304688 165.875 109.925781 170.546875 105.738281 175.292969 C 106.738281 167.332031 108.089844 159.628906 109.773438 152.292969 C 117.109375 150.609375 124.8125 149.257812 132.777344 148.257812 Z M 140.28125 269.023438 C 134 263.71875 127.800781 258.019531 121.851562 252.070312 C 115.917969 246.136719 110.222656 239.921875 104.898438 233.597656 C 104.109375 225.367188 103.707031 216.832031 103.707031 208.222656 C 103.707031 199.601562 104.109375 191.054688 104.898438 182.800781 C 110.210938 176.515625 115.90625 170.316406 121.847656 164.375 C 127.921875 158.324219 134.121094 152.625 140.28125 147.421875 C 148.539062 146.628906 157.082031 146.222656 165.703125 146.222656 C 174.320312 146.222656 182.867188 146.628906 191.121094 147.417969 C 197.40625 152.730469 203.605469 158.425781 209.550781 164.371094 C 215.496094 170.316406 221.191406 176.519531 226.503906 182.804688 C 227.292969 191.058594 227.699219 199.601562 227.699219 208.222656 C 227.699219 216.90625 227.285156 225.445312 226.484375 233.640625 C 221.234375 239.878906 215.546875 246.078125 209.550781 252.070312 C 203.601562 258.019531 197.402344 263.71875 191.121094 269.023438 C 174.589844 270.59375 156.8125 270.59375 140.28125 269.023438 Z M 100.125 227.773438 C 94.941406 221.296875 90.179688 214.738281 85.902344 208.203125 C 90.191406 201.667969 94.957031 195.113281 100.125 188.636719 C 99.667969 195.0625 99.433594 201.621094 99.433594 208.222656 C 99.433594 214.816406 99.667969 221.367188 100.125 227.773438 Z M 231.277344 188.636719 C 236.410156 195.070312 241.179688 201.628906 245.519531 208.21875 C 241.160156 214.835938 236.390625 221.394531 231.265625 227.800781 C 231.726562 221.414062 231.96875 214.855469 231.96875 208.21875 C 231.96875 201.621094 231.734375 195.0625 231.277344 188.636719 Z M 212.570312 161.351562 C 208.046875 156.824219 203.375 152.445312 198.628906 148.257812 C 206.59375 149.257812 214.296875 150.609375 221.632812 152.292969 C 223.3125 159.628906 224.664062 167.332031 225.664062 175.292969 C 221.480469 170.546875 217.097656 165.875 212.570312 161.351562 Z M 185.289062 142.648438 C 172.421875 141.738281 159 141.738281 146.128906 142.648438 C 152.644531 137.457031 159.207031 132.691406 165.722656 128.425781 C 172.257812 132.710938 178.808594 137.476562 185.289062 142.648438 Z M 100.78125 181.066406 C 94.398438 188.714844 88.578125 196.507812 83.386719 204.289062 C 75.71875 192.125 69.769531 180.167969 65.671875 168.683594 C 76.589844 162.4375 90.140625 157.195312 105.160156 153.410156 C 103.234375 162.199219 101.75 171.46875 100.78125 181.066406 Z M 83.386719 212.121094 C 88.5625 219.894531 94.382812 227.6875 100.78125 235.332031 C 101.722656 244.84375 103.207031 254.128906 105.160156 263.035156 C 90.128906 259.238281 76.585938 254 65.6875 247.757812 C 69.75 236.316406 75.691406 224.351562 83.386719 212.121094 Z M 146.117188 273.796875 C 152.546875 274.253906 159.105469 274.488281 165.703125 274.488281 C 172.296875 274.488281 178.855469 274.253906 185.285156 273.796875 C 178.855469 278.925781 172.296875 283.695312 165.703125 288.039062 C 159.105469 283.695312 152.546875 278.925781 146.117188 273.796875 Z M 230.605469 235.375 C 236.917969 227.832031 242.75 220.027344 248.03125 212.136719 C 255.726562 224.398438 261.664062 236.355469 265.714844 247.757812 C 254.824219 254 241.28125 259.242188 226.242188 263.035156 C 228.175781 254.222656 229.65625 244.957031 230.605469 235.375 Z M 248.03125 204.304688 C 242.773438 196.449219 236.945312 188.648438 230.625 181.070312 C 229.65625 171.472656 228.171875 162.203125 226.242188 153.40625 C 241.28125 157.203125 254.824219 162.441406 265.714844 168.683594 C 261.667969 180.085938 255.726562 192.046875 248.03125 204.304688 Z M 249.648438 103.972656 C 249.066406 105.429688 248.734375 106.980469 248.734375 108.574219 C 248.734375 115.449219 254.339844 121.046875 261.226562 121.046875 C 263.632812 121.046875 265.929688 120.355469 267.910156 119.085938 C 273.320312 130.0625 273.035156 146.023438 267.109375 164.566406 C 255.496094 158.027344 241.101562 152.578125 225.183594 148.734375 C 221.339844 132.8125 215.890625 118.417969 209.347656 106.804688 C 225.230469 101.71875 239.058594 100.742188 249.648438 103.972656 Z M 165.703125 77.949219 C 179.089844 77.949219 192.265625 87.355469 203.011719 104.472656 C 191.050781 108.800781 178.527344 115.125 165.722656 123.328125 C 152.9375 115.140625 140.398438 108.816406 128.390625 104.472656 C 139.136719 87.359375 152.3125 77.949219 165.703125 77.949219 Z M 68.929688 111.449219 C 79.5625 100.824219 98.371094 99.21875 122.046875 106.816406 C 115.507812 118.429688 110.0625 132.820312 106.21875 148.738281 C 90.320312 152.574219 75.921875 158.019531 64.28125 164.566406 C 62.808594 159.957031 61.679688 155.492188 60.898438 151.230469 C 65.625 149.414062 68.875 144.816406 68.875 139.605469 C 68.875 134.195312 65.488281 129.550781 60.5625 127.835938 C 61.925781 121.1875 64.726562 115.671875 68.929688 111.449219 Z M 35.429688 208.222656 C 35.429688 194.835938 44.832031 181.660156 61.933594 170.90625 C 66.316406 182.964844 72.652344 195.492188 80.808594 208.203125 C 72.621094 220.984375 66.292969 233.523438 61.953125 245.53125 C 44.839844 234.785156 35.429688 221.609375 35.429688 208.222656 Z M 68.929688 304.992188 C 58.300781 294.363281 56.699219 275.554688 64.292969 251.875 C 75.910156 258.417969 90.300781 263.863281 106.214844 267.707031 C 110.0625 283.625 115.507812 298.015625 122.046875 309.625 C 98.371094 317.222656 79.558594 315.617188 68.929688 304.992188 Z M 165.703125 338.492188 C 152.3125 338.492188 139.136719 329.085938 128.390625 311.972656 C 140.355469 307.644531 152.882812 301.328125 165.703125 293.132812 C 178.523438 301.324219 191.050781 307.640625 203.011719 311.972656 C 192.265625 329.085938 179.09375 338.492188 165.703125 338.492188 Z M 262.472656 304.992188 C 251.847656 315.617188 233.054688 317.21875 209.386719 309.640625 C 210.195312 308.203125 211.011719 306.675781 211.839844 305.046875 C 212.433594 305.132812 213.035156 305.179688 213.644531 305.179688 C 220.523438 305.179688 226.117188 299.574219 226.117188 292.683594 C 226.117188 288.648438 224.191406 284.933594 220.992188 282.605469 C 222.554688 277.824219 223.964844 272.828125 225.191406 267.707031 C 241.109375 263.859375 255.496094 258.417969 267.105469 251.878906 C 274.703125 275.550781 273.101562 294.363281 262.472656 304.992188 Z M 269.453125 245.53125 C 265.121094 233.570312 258.804688 221.042969 250.617188 208.222656 C 258.804688 195.402344 265.121094 182.875 269.453125 170.910156 C 286.566406 181.65625 295.972656 194.832031 295.972656 208.222656 C 295.972656 221.609375 286.566406 234.785156 269.453125 245.53125 Z M 269.453125 245.53125 "/></g><path style=" stroke:none;fill-rule:nonzero;fill:#ffffff;fill-opacity:1;" d="M 194.722656 202.007812 C 194.722656 186.003906 181.707031 172.984375 165.703125 172.984375 C 149.699219 172.984375 136.679688 186.003906 136.679688 202.007812 C 136.679688 218.019531 149.699219 231.054688 165.703125 231.054688 C 181.707031 231.054688 194.722656 218.019531 194.722656 202.007812 Z M 194.722656 202.007812 "/></g></svg>