<svg xmlns="http://www.w3.org/2000/svg" xmlns:xlink="http://www.w3.org/1999/xlink" width="155" zoomAndPan="magnify" viewBox="0 0 116.25 35.25" height="47" preserveAspectRatio="xMidYMid meet" version="1.2"><defs><filter x="0%" y="0%" width="100%" filterUnits="objectBoundingBox" id="f896fcd97e" height="100%"><feColorMatrix values="0 0 0 0 1 0 0 0 0 1 0 0 0 0 1 0 0 0 1 0" type="matrix" in="SourceGraphic"/></filter><clipPath id="9064f68dda"><path d="M 0.878906 0 L 31.558594 0 L 31.558594 30.679688 L 0.878906 30.679688 Z M 0.878906 0 "/></clipPath><clipPath id="89a9dc944d"><path d="M 2.355469 0 L 30.082031 0 C 30.472656 0 30.847656 0.15625 31.125 0.433594 C 31.402344 0.710938 31.558594 1.085938 31.558594 1.476562 L 31.558594 29.203125 C 31.558594 29.59375 31.402344 29.96875 31.125 30.246094 C 30.847656 30.523438 30.472656 30.679688 30.082031 30.679688 L 2.355469 30.679688 C 1.964844 30.679688 1.589844 30.523438 1.3125 30.246094 C 1.035156 29.96875 0.878906 29.59375 0.878906 29.203125 L 0.878906 1.476562 C 0.878906 1.085938 1.035156 0.710938 1.3125 0.433594 C 1.589844 0.15625 1.964844 0 2.355469 0 Z M 2.355469 0 "/></clipPath><clipPath id="564755c428"><rect x="0" width="32" y="0" height="31"/></clipPath><clipPath id="bdd6f4323b"><path d="M 0.972656 0.742188 L 31.652344 0.742188 L 31.652344 31.417969 L 0.972656 31.417969 Z M 0.972656 0.742188 "/></clipPath><clipPath id="065d601261"><path d="M 2.449219 0.742188 L 30.175781 0.742188 C 30.570312 0.742188 30.945312 0.894531 31.222656 1.171875 C 31.496094 1.449219 31.652344 1.824219 31.652344 2.21875 L 31.652344 29.941406 C 31.652344 30.335938 31.496094 30.710938 31.222656 30.988281 C 30.945312 31.265625 30.570312 31.417969 30.175781 31.417969 L 2.449219 31.417969 C 2.058594 31.417969 1.683594 31.265625 1.40625 30.988281 C 1.128906 30.710938 0.972656 30.335938 0.972656 29.941406 L 0.972656 2.21875 C 0.972656 1.824219 1.128906 1.449219 1.40625 1.171875 C 1.683594 0.894531 2.058594 0.742188 2.449219 0.742188 Z M 2.449219 0.742188 "/></clipPath><clipPath id="0b6f62023c"><rect x="0" width="32" y="0" height="32"/></clipPath><clipPath id="aeff9df6fe"><path d="M 0.84375 3 L 32 3 L 32 34.515625 L 0.84375 34.515625 Z M 0.84375 3 "/></clipPath><clipPath id="ac5e845dc0"><path d="M 0.84375 0.835938 L 31.523438 0.835938 L 31.523438 31.515625 L 0.84375 31.515625 Z M 0.84375 0.835938 "/></clipPath><clipPath id="e1688c2873"><path d="M 2.320312 0.835938 L 30.046875 0.835938 C 30.4375 0.835938 30.8125 0.992188 31.089844 1.269531 C 31.367188 1.546875 31.523438 1.921875 31.523438 2.3125 L 31.523438 30.039062 C 31.523438 30.429688 31.367188 30.804688 31.089844 31.082031 C 30.8125 31.359375 30.4375 31.515625 30.046875 31.515625 L 2.320312 31.515625 C 1.929688 31.515625 1.554688 31.359375 1.277344 31.082031 C 1 30.804688 0.84375 30.429688 0.84375 30.039062 L 0.84375 2.3125 C 0.84375 1.921875 1 1.546875 1.277344 1.269531 C 1.554688 0.992188 1.929688 0.835938 2.320312 0.835938 Z M 2.320312 0.835938 "/></clipPath><clipPath id="3d68d18c0f"><rect x="0" width="32" y="0" height="32"/></clipPath><clipPath id="9b29b85531"><path d="M 3.726562 6.722656 L 28.695312 6.722656 L 28.695312 31.691406 L 3.726562 31.691406 Z M 3.726562 6.722656 "/></clipPath></defs><g id="fc2e21c80f"><g mask="url(#1a2486c74c)" transform="matrix(1,0,0,1,4,-0.00000000000000115)"><g clip-path="url(#564755c428)"><g clip-rule="nonzero" clip-path="url(#9064f68dda)"><g clip-rule="nonzero" clip-path="url(#89a9dc944d)"><path style=" stroke:none;fill-rule:nonzero;fill:#7feffd;fill-opacity:1;" d="M 0.878906 0 L 31.558594 0 L 31.558594 30.679688 L 0.878906 30.679688 Z M 0.878906 0 "/></g></g></g><mask id="1a2486c74c"><g filter="url(#f896fcd97e)"><rect x="0" width="116.25" y="0" height="35.25" style="fill:#000000;fill-opacity:0.9;stroke:none;"/></g></mask></g><g style="fill:#377dff;fill-opacity:1;"><g transform="translate(37.467686, 13.634716)"><path style="stroke:none" d="M 5.453125 0.046875 C 5.191406 0.015625 4.503906 0 3.390625 0 L 3.125 0 L 3.125 -9.25 L 1.46875 -9.25 C 0.976562 -9.25 0.6875 -9.222656 0.59375 -9.171875 C 0.5 -9.128906 0.429688 -9.085938 0.390625 -9.046875 L 0.359375 -9.0625 L 0.359375 -11.203125 L 0.390625 -11.21875 C 0.566406 -11.15625 1.0625 -11.125 1.875 -11.125 L 7.125 -11.125 C 7.613281 -11.125 7.898438 -11.148438 7.984375 -11.203125 C 8.078125 -11.253906 8.148438 -11.300781 8.203125 -11.34375 L 8.234375 -11.328125 L 8.234375 -9.1875 L 8.203125 -9.171875 C 8.015625 -9.222656 7.519531 -9.25 6.71875 -9.25 L 5.453125 -9.25 Z M 5.453125 0.046875 "/></g></g><g style="fill:#377dff;fill-opacity:1;"><g transform="translate(46.906896, 13.634716)"><path style="stroke:none" d="M 7.03125 -2.015625 C 7.382812 -2.015625 7.628906 -2.046875 7.765625 -2.109375 L 7.796875 -2.09375 L 7.703125 0 L 1.4375 0 L 1.4375 -11.1875 C 1.59375 -11.175781 1.757812 -11.171875 1.9375 -11.171875 L 2.53125 -11.140625 C 2.914062 -11.128906 3.335938 -11.125 3.796875 -11.125 C 5.078125 -11.125 6.34375 -11.148438 7.59375 -11.203125 C 7.53125 -10.710938 7.5 -10.054688 7.5 -9.234375 C 7.5 -9.140625 7.503906 -9.070312 7.515625 -9.03125 L 7.5 -9 C 7.207031 -9.082031 6.796875 -9.125 6.265625 -9.125 L 3.625 -9.125 L 3.625 -7 L 5.609375 -7 C 6.222656 -7 6.59375 -7.015625 6.71875 -7.046875 L 6.734375 -4.984375 C 6.460938 -5.003906 6.117188 -5.015625 5.703125 -5.015625 L 3.625 -5.015625 L 3.625 -2.015625 Z M 7.03125 -2.015625 "/></g></g><g style="fill:#377dff;fill-opacity:1;"><g transform="translate(56.346107, 13.634716)"><path style="stroke:none" d="M 6.421875 -11.34375 C 7.472656 -11.34375 8.363281 -11.160156 9.09375 -10.796875 L 9.09375 -8.234375 L 9.078125 -8.21875 C 8.765625 -8.695312 8.109375 -9.015625 7.109375 -9.171875 C 6.804688 -9.222656 6.429688 -9.25 5.984375 -9.25 C 5.535156 -9.25 5.09375 -9.160156 4.65625 -8.984375 C 4.21875 -8.816406 3.859375 -8.578125 3.578125 -8.265625 C 3.035156 -7.660156 2.765625 -6.796875 2.765625 -5.671875 C 2.765625 -4.359375 3.109375 -3.378906 3.796875 -2.734375 C 4.367188 -2.203125 5.125 -1.9375 6.0625 -1.9375 C 7.125 -1.9375 7.984375 -2.160156 8.640625 -2.609375 C 8.878906 -2.773438 9.082031 -2.976562 9.25 -3.21875 L 9.265625 -3.203125 L 9.265625 -0.859375 C 8.421875 -0.148438 7.273438 0.203125 5.828125 0.203125 C 4.117188 0.203125 2.785156 -0.335938 1.828125 -1.421875 C 0.898438 -2.453125 0.4375 -3.816406 0.4375 -5.515625 C 0.4375 -7.316406 0.941406 -8.738281 1.953125 -9.78125 C 2.984375 -10.820312 4.472656 -11.34375 6.421875 -11.34375 Z M 6.421875 -11.34375 "/></g></g><g style="fill:#377dff;fill-opacity:1;"><g transform="translate(67.140453, 13.634716)"><path style="stroke:none" d="M 3.703125 0.046875 C 3.160156 0.015625 2.523438 0 1.796875 0 L 1.515625 0 L 1.515625 -11.171875 C 1.867188 -11.140625 2.117188 -11.125 2.265625 -11.125 L 2.609375 -11.125 C 3.046875 -11.125 3.410156 -11.148438 3.703125 -11.203125 L 3.703125 -6.734375 L 7.640625 -6.734375 L 7.640625 -11.171875 C 8.097656 -11.140625 8.546875 -11.125 8.984375 -11.125 C 9.421875 -11.125 9.695312 -11.148438 9.8125 -11.203125 L 9.8125 0.046875 C 9.539062 0.015625 9.007812 0 8.21875 0 L 7.640625 0 L 7.640625 -4.734375 L 3.703125 -4.734375 Z M 3.703125 0.046875 "/></g></g><g style="fill:#377dff;fill-opacity:1;"><g transform="translate(52.212558, 31.259715)"><path style="stroke:none" d="M 5.734375 0.046875 C 5.453125 0.015625 4.726562 0 3.5625 0 L 3.28125 0 L 3.28125 -9.734375 L 1.546875 -9.734375 C 1.023438 -9.734375 0.71875 -9.707031 0.625 -9.65625 C 0.53125 -9.601562 0.457031 -9.554688 0.40625 -9.515625 L 0.375 -9.515625 L 0.375 -11.765625 L 0.40625 -11.796875 C 0.59375 -11.734375 1.113281 -11.703125 1.96875 -11.703125 L 7.484375 -11.703125 C 8.003906 -11.703125 8.3125 -11.726562 8.40625 -11.78125 C 8.5 -11.832031 8.570312 -11.878906 8.625 -11.921875 L 8.640625 -11.90625 L 8.640625 -9.65625 L 8.625 -9.625 C 8.425781 -9.695312 7.90625 -9.734375 7.0625 -9.734375 L 5.734375 -9.734375 Z M 5.734375 0.046875 "/></g></g><g style="fill:#377dff;fill-opacity:1;"><g transform="translate(62.139047, 31.259715)"><path style="stroke:none" d="M 1.78125 -11.734375 C 2.375 -11.710938 2.726562 -11.703125 2.84375 -11.703125 L 3.484375 -11.703125 C 3.796875 -11.703125 4.046875 -11.722656 4.234375 -11.765625 L 4.21875 0 L 1.78125 0 Z M 1.78125 -11.734375 "/></g></g><g style="fill:#377dff;fill-opacity:1;"><g transform="translate(69.05715, 31.259715)"><path style="stroke:none" d="M 5.734375 0.046875 C 5.453125 0.015625 4.726562 0 3.5625 0 L 3.28125 0 L 3.28125 -9.734375 L 1.546875 -9.734375 C 1.023438 -9.734375 0.71875 -9.707031 0.625 -9.65625 C 0.53125 -9.601562 0.457031 -9.554688 0.40625 -9.515625 L 0.375 -9.515625 L 0.375 -11.765625 L 0.40625 -11.796875 C 0.59375 -11.734375 1.113281 -11.703125 1.96875 -11.703125 L 7.484375 -11.703125 C 8.003906 -11.703125 8.3125 -11.726562 8.40625 -11.78125 C 8.5 -11.832031 8.570312 -11.878906 8.625 -11.921875 L 8.640625 -11.90625 L 8.640625 -9.65625 L 8.625 -9.625 C 8.425781 -9.695312 7.90625 -9.734375 7.0625 -9.734375 L 5.734375 -9.734375 Z M 5.734375 0.046875 "/></g></g><g style="fill:#377dff;fill-opacity:1;"><g transform="translate(78.983639, 31.259715)"><path style="stroke:none" d="M 2.359375 0.078125 C 1.859375 0.0234375 1.269531 0 0.59375 0 L -0.09375 0 L 3.734375 -10.71875 C 3.898438 -11.195312 3.984375 -11.476562 3.984375 -11.5625 C 3.984375 -11.644531 3.976562 -11.691406 3.96875 -11.703125 L 3.984375 -11.71875 C 4.367188 -11.707031 4.773438 -11.703125 5.203125 -11.703125 C 5.554688 -11.703125 5.976562 -11.707031 6.46875 -11.71875 L 6.46875 -11.703125 C 6.457031 -11.679688 6.453125 -11.648438 6.453125 -11.609375 C 6.453125 -11.492188 6.539062 -11.195312 6.71875 -10.71875 L 10.625 0.03125 C 10.507812 0.0195312 10.375 0.015625 10.21875 0.015625 C 10.21875 0.015625 10.0625 0.0078125 9.75 0 C 9.601562 0 9.472656 0 9.359375 0 L 8 0 L 7.171875 -2.53125 L 3.1875 -2.53125 Z M 6.484375 -4.640625 L 5.15625 -8.734375 L 3.859375 -4.640625 Z M 6.484375 -4.640625 "/></g></g><g style="fill:#377dff;fill-opacity:1;"><g transform="translate(90.414321, 31.259715)"><path style="stroke:none" d="M 1.59375 0 C 1.625 -0.195312 1.640625 -0.414062 1.640625 -0.65625 L 1.640625 -11.703125 L 3.40625 -11.703125 L 8.0625 -4.359375 L 8.0625 -11.09375 C 8.0625 -11.414062 8.035156 -11.617188 7.984375 -11.703125 L 10.359375 -11.703125 C 10.328125 -11.460938 10.3125 -11.203125 10.3125 -10.921875 L 10.3125 0 L 8.484375 0 L 3.890625 -7.046875 L 3.890625 0 Z M 1.59375 0 "/></g></g><g style="fill:#377dff;fill-opacity:1;"><g transform="translate(103.27003, 31.259715)"><path style="stroke:none" d="M 8.578125 -11.046875 L 8.40625 -8.46875 L 8.34375 -8.4375 C 7.914062 -9.09375 7.175781 -9.519531 6.125 -9.71875 C 5.800781 -9.78125 5.488281 -9.8125 5.1875 -9.8125 C 4.882812 -9.8125 4.625 -9.785156 4.40625 -9.734375 C 4.195312 -9.679688 4.015625 -9.601562 3.859375 -9.5 C 3.535156 -9.289062 3.375 -9.015625 3.375 -8.671875 C 3.375 -8.222656 3.515625 -7.890625 3.796875 -7.671875 C 4.148438 -7.398438 4.734375 -7.207031 5.546875 -7.09375 C 6.367188 -6.988281 7.023438 -6.84375 7.515625 -6.65625 C 8.003906 -6.46875 8.40625 -6.234375 8.71875 -5.953125 C 9.320312 -5.410156 9.625 -4.644531 9.625 -3.65625 C 9.625 -2.363281 9.132812 -1.367188 8.15625 -0.671875 C 7.332031 -0.078125 6.285156 0.21875 5.015625 0.21875 C 3.992188 0.21875 2.984375 0.0234375 1.984375 -0.359375 C 1.660156 -0.484375 1.375 -0.632812 1.125 -0.8125 L 1.21875 -3.75 L 1.265625 -3.78125 C 1.984375 -2.519531 3.175781 -1.890625 4.84375 -1.890625 C 6.019531 -1.890625 6.796875 -2.175781 7.171875 -2.75 C 7.304688 -2.9375 7.375 -3.148438 7.375 -3.390625 C 7.375 -3.628906 7.332031 -3.828125 7.25 -3.984375 C 7.175781 -4.140625 7.050781 -4.269531 6.875 -4.375 C 6.539062 -4.601562 5.96875 -4.753906 5.15625 -4.828125 C 4.351562 -4.898438 3.695312 -5.039062 3.1875 -5.25 C 2.675781 -5.46875 2.269531 -5.734375 1.96875 -6.046875 C 1.414062 -6.609375 1.140625 -7.394531 1.140625 -8.40625 C 1.140625 -9.445312 1.507812 -10.289062 2.25 -10.9375 C 2.988281 -11.59375 3.988281 -11.921875 5.25 -11.921875 C 6.519531 -11.921875 7.628906 -11.628906 8.578125 -11.046875 Z M 8.578125 -11.046875 "/></g></g><g mask="url(#00b45e2c46)" transform="matrix(1,0,0,1,2,1)"><g clip-path="url(#0b6f62023c)"><g clip-rule="nonzero" clip-path="url(#bdd6f4323b)"><g clip-rule="nonzero" clip-path="url(#065d601261)"><path style=" stroke:none;fill-rule:nonzero;fill:#3ec5fd;fill-opacity:1;" d="M 0.972656 0.742188 L 31.652344 0.742188 L 31.652344 31.417969 L 0.972656 31.417969 Z M 0.972656 0.742188 "/></g></g></g><mask id="00b45e2c46"><g filter="url(#f896fcd97e)"><rect x="0" width="116.25" y="0" height="35.25" style="fill:#000000;fill-opacity:0.9;stroke:none;"/></g></mask></g><g clip-rule="nonzero" clip-path="url(#aeff9df6fe)"><g mask="url(#ddf7a86cde)" transform="matrix(1,0,0,1,0.000000000000000111,3)"><g clip-path="url(#3d68d18c0f)"><g clip-rule="nonzero" clip-path="url(#ac5e845dc0)"><g clip-rule="nonzero" clip-path="url(#e1688c2873)"><path style=" stroke:none;fill-rule:nonzero;fill:#3993fe;fill-opacity:1;" d="M 0.84375 0.835938 L 31.523438 0.835938 L 31.523438 31.515625 L 0.84375 31.515625 Z M 0.84375 0.835938 "/></g></g></g><mask id="ddf7a86cde"><g filter="url(#f896fcd97e)"><rect x="0" width="116.25" y="0" height="35.25" style="fill:#000000;fill-opacity:0.9;stroke:none;"/></g></mask></g></g><g clip-rule="nonzero" clip-path="url(#9b29b85531)"><path style=" stroke:none;fill-rule:nonzero;fill:#ffffff;fill-opacity:1;" d="M 28.628906 19.171875 C 28.628906 17.769531 27.664062 16.414062 25.910156 15.335938 C 26.546875 13.402344 26.554688 11.785156 25.933594 10.644531 C 26.085938 10.445312 26.171875 10.203125 26.171875 9.949219 C 26.171875 9.3125 25.652344 8.792969 25.019531 8.792969 C 24.6875 8.792969 24.375 8.9375 24.15625 9.179688 C 23.066406 8.8125 21.640625 8.902344 20.011719 9.4375 C 18.933594 7.6875 17.578125 6.722656 16.179688 6.722656 C 14.777344 6.722656 13.421875 7.6875 12.34375 9.4375 C 9.964844 8.65625 8.050781 8.832031 6.945312 9.9375 C 6.496094 10.386719 6.199219 10.96875 6.058594 11.664062 C 5.425781 11.667969 4.910156 12.1875 4.910156 12.820312 C 4.910156 13.457031 5.425781 13.976562 6.0625 13.976562 C 6.074219 13.976562 6.082031 13.972656 6.09375 13.972656 C 6.171875 14.410156 6.289062 14.867188 6.445312 15.335938 C 4.691406 16.414062 3.726562 17.769531 3.726562 19.171875 C 3.726562 20.570312 4.691406 21.929688 6.445312 23.007812 C 5.664062 25.382812 5.835938 27.296875 6.945312 28.40625 C 7.597656 29.058594 8.527344 29.386719 9.671875 29.386719 C 10.46875 29.386719 11.367188 29.226562 12.34375 28.902344 C 13.421875 30.65625 14.777344 31.621094 16.179688 31.621094 C 17.578125 31.621094 18.9375 30.65625 20.011719 28.90625 C 20.988281 29.226562 21.886719 29.386719 22.683594 29.386719 C 23.828125 29.386719 24.757812 29.058594 25.410156 28.40625 C 26.519531 27.296875 26.691406 25.382812 25.910156 23.007812 C 27.664062 21.929688 28.628906 20.570312 28.628906 19.171875 Z M 20.933594 25.878906 C 20.832031 25.851562 20.722656 25.832031 20.613281 25.832031 C 19.976562 25.832031 19.457031 26.351562 19.457031 26.988281 C 19.457031 27.417969 19.703125 27.804688 20.070312 28.003906 C 19.992188 28.152344 19.914062 28.292969 19.839844 28.425781 C 18.785156 28.050781 17.675781 27.503906 16.539062 26.789062 C 17.269531 26.304688 17.988281 25.765625 18.691406 25.179688 C 19.582031 25.089844 20.4375 24.953125 21.253906 24.773438 C 21.15625 25.152344 21.050781 25.523438 20.933594 25.878906 Z M 12.519531 28.425781 C 11.941406 27.417969 11.457031 26.164062 11.105469 24.773438 C 11.917969 24.953125 12.777344 25.089844 13.664062 25.179688 C 14.367188 25.761719 15.089844 26.300781 15.816406 26.789062 C 14.679688 27.5 13.574219 28.050781 12.519531 28.425781 Z M 12.519531 9.917969 C 13.578125 10.292969 14.683594 10.84375 15.816406 11.554688 C 15.101562 12.03125 14.378906 12.570312 13.664062 13.164062 C 12.777344 13.253906 11.917969 13.390625 11.105469 13.570312 C 11.457031 12.175781 11.941406 10.925781 12.519531 9.917969 Z M 19.835938 9.917969 C 20.414062 10.925781 20.898438 12.175781 21.25 13.570312 C 20.4375 13.390625 19.578125 13.253906 18.691406 13.164062 C 17.984375 12.574219 17.261719 12.035156 16.542969 11.554688 C 17.675781 10.839844 18.78125 10.289062 19.835938 9.917969 Z M 19.226562 24.71875 C 19.664062 24.332031 20.097656 23.925781 20.515625 23.507812 C 20.9375 23.085938 21.339844 22.65625 21.726562 22.21875 C 21.632812 22.953125 21.507812 23.667969 21.355469 24.347656 C 20.675781 24.503906 19.960938 24.628906 19.226562 24.71875 Z M 11.003906 24.347656 C 10.84375 23.660156 10.71875 22.945312 10.628906 22.214844 C 11.015625 22.65625 11.421875 23.089844 11.839844 23.507812 C 12.261719 23.925781 12.691406 24.332031 13.132812 24.71875 C 12.394531 24.628906 11.679688 24.503906 11.003906 24.347656 Z M 13.132812 13.621094 C 12.699219 14.003906 12.265625 14.410156 11.839844 14.832031 C 11.421875 15.253906 11.015625 15.683594 10.628906 16.125 C 10.722656 15.386719 10.847656 14.675781 11.003906 13.996094 C 11.683594 13.839844 12.394531 13.714844 13.132812 13.621094 Z M 13.824219 24.796875 C 13.246094 24.304688 12.671875 23.777344 12.121094 23.230469 C 11.570312 22.679688 11.042969 22.105469 10.550781 21.519531 C 10.480469 20.757812 10.441406 19.96875 10.441406 19.171875 C 10.441406 18.375 10.480469 17.582031 10.550781 16.820312 C 11.042969 16.238281 11.570312 15.664062 12.121094 15.113281 C 12.683594 14.554688 13.257812 14.027344 13.824219 13.542969 C 14.589844 13.472656 15.378906 13.433594 16.179688 13.433594 C 16.976562 13.433594 17.765625 13.472656 18.53125 13.542969 C 19.113281 14.035156 19.6875 14.5625 20.234375 15.113281 C 20.785156 15.664062 21.3125 16.238281 21.804688 16.820312 C 21.878906 17.582031 21.914062 18.375 21.914062 19.171875 C 21.914062 19.976562 21.875 20.765625 21.804688 21.523438 C 21.316406 22.101562 20.789062 22.675781 20.234375 23.230469 C 19.683594 23.777344 19.113281 24.304688 18.53125 24.796875 C 17 24.941406 15.355469 24.941406 13.824219 24.796875 Z M 10.109375 20.980469 C 9.628906 20.378906 9.191406 19.773438 8.792969 19.167969 C 9.191406 18.566406 9.632812 17.957031 10.109375 17.359375 C 10.066406 17.953125 10.046875 18.558594 10.046875 19.171875 C 10.046875 19.78125 10.066406 20.386719 10.109375 20.980469 Z M 22.246094 17.359375 C 22.722656 17.953125 23.164062 18.5625 23.5625 19.171875 C 23.160156 19.78125 22.71875 20.390625 22.246094 20.984375 C 22.289062 20.390625 22.308594 19.785156 22.308594 19.171875 C 22.308594 18.558594 22.289062 17.953125 22.246094 17.359375 Z M 20.515625 14.832031 C 20.097656 14.414062 19.664062 14.011719 19.226562 13.621094 C 19.960938 13.714844 20.675781 13.839844 21.355469 13.996094 C 21.507812 14.675781 21.632812 15.386719 21.726562 16.125 C 21.339844 15.683594 20.933594 15.253906 20.515625 14.832031 Z M 17.992188 13.101562 C 16.800781 13.019531 15.558594 13.019531 14.367188 13.101562 C 14.96875 12.621094 15.578125 12.183594 16.179688 11.785156 C 16.785156 12.183594 17.390625 12.625 17.992188 13.101562 Z M 10.171875 16.660156 C 9.578125 17.367188 9.042969 18.085938 8.5625 18.808594 C 7.851562 17.679688 7.300781 16.574219 6.921875 15.511719 C 7.933594 14.933594 9.1875 14.449219 10.574219 14.097656 C 10.398438 14.914062 10.261719 15.769531 10.171875 16.660156 Z M 8.5625 19.53125 C 9.039062 20.25 9.578125 20.972656 10.171875 21.679688 C 10.257812 22.558594 10.394531 23.417969 10.574219 24.242188 C 9.183594 23.890625 7.933594 23.40625 6.921875 22.828125 C 7.300781 21.769531 7.847656 20.664062 8.5625 19.53125 Z M 14.367188 25.238281 C 14.960938 25.28125 15.566406 25.304688 16.179688 25.304688 C 16.789062 25.304688 17.394531 25.28125 17.992188 25.238281 C 17.394531 25.714844 16.789062 26.15625 16.179688 26.558594 C 15.566406 26.15625 14.960938 25.714844 14.367188 25.238281 Z M 22.183594 21.683594 C 22.769531 20.984375 23.308594 20.261719 23.796875 19.535156 C 24.507812 20.667969 25.058594 21.773438 25.433594 22.828125 C 24.425781 23.40625 23.171875 23.890625 21.78125 24.242188 C 21.960938 23.429688 22.097656 22.570312 22.183594 21.683594 Z M 23.796875 18.808594 C 23.308594 18.082031 22.769531 17.359375 22.1875 16.660156 C 22.097656 15.769531 21.957031 14.914062 21.78125 14.097656 C 23.171875 14.449219 24.425781 14.933594 25.433594 15.511719 C 25.058594 16.566406 24.507812 17.675781 23.796875 18.808594 Z M 23.945312 9.523438 C 23.890625 9.660156 23.863281 9.800781 23.863281 9.949219 C 23.863281 10.585938 24.378906 11.105469 25.019531 11.105469 C 25.242188 11.105469 25.453125 11.039062 25.636719 10.921875 C 26.136719 11.9375 26.109375 13.414062 25.5625 15.132812 C 24.488281 14.527344 23.15625 14.023438 21.683594 13.667969 C 21.328125 12.191406 20.824219 10.859375 20.21875 9.785156 C 21.6875 9.316406 22.964844 9.226562 23.945312 9.523438 Z M 16.179688 7.117188 C 17.417969 7.117188 18.636719 7.988281 19.628906 9.570312 C 18.523438 9.972656 17.363281 10.554688 16.179688 11.316406 C 14.996094 10.558594 13.835938 9.972656 12.726562 9.570312 C 13.71875 7.988281 14.9375 7.117188 16.179688 7.117188 Z M 7.222656 10.214844 C 8.207031 9.234375 9.949219 9.085938 12.136719 9.789062 C 11.535156 10.863281 11.03125 12.195312 10.675781 13.667969 C 9.203125 14.023438 7.871094 14.527344 6.792969 15.132812 C 6.65625 14.703125 6.550781 14.292969 6.480469 13.898438 C 6.917969 13.730469 7.21875 13.304688 7.21875 12.820312 C 7.21875 12.320312 6.90625 11.890625 6.449219 11.734375 C 6.574219 11.117188 6.835938 10.605469 7.222656 10.214844 Z M 4.125 19.171875 C 4.125 17.933594 4.992188 16.714844 6.574219 15.71875 C 6.980469 16.835938 7.566406 17.992188 8.324219 19.167969 C 7.566406 20.351562 6.980469 21.511719 6.578125 22.625 C 4.992188 21.628906 4.125 20.410156 4.125 19.171875 Z M 7.222656 28.125 C 6.238281 27.140625 6.089844 25.402344 6.792969 23.210938 C 7.871094 23.816406 9.199219 24.320312 10.671875 24.675781 C 11.03125 26.148438 11.535156 27.480469 12.136719 28.554688 C 9.949219 29.257812 8.207031 29.109375 7.222656 28.125 Z M 16.179688 31.226562 C 14.9375 31.226562 13.71875 30.355469 12.726562 28.773438 C 13.832031 28.371094 14.992188 27.785156 16.179688 27.027344 C 17.363281 27.785156 18.523438 28.371094 19.628906 28.773438 C 18.636719 30.355469 17.417969 31.226562 16.179688 31.226562 Z M 25.132812 28.125 C 24.148438 29.109375 22.410156 29.257812 20.21875 28.554688 C 20.296875 28.421875 20.371094 28.28125 20.449219 28.128906 C 20.503906 28.140625 20.558594 28.144531 20.613281 28.144531 C 21.25 28.144531 21.769531 27.625 21.769531 26.988281 C 21.769531 26.613281 21.589844 26.269531 21.292969 26.054688 C 21.4375 25.613281 21.570312 25.148438 21.683594 24.675781 C 23.15625 24.320312 24.488281 23.816406 25.5625 23.210938 C 26.265625 25.402344 26.117188 27.140625 25.132812 28.125 Z M 25.777344 22.625 C 25.378906 21.515625 24.792969 20.355469 24.035156 19.171875 C 24.792969 17.984375 25.378906 16.824219 25.777344 15.71875 C 27.363281 16.710938 28.234375 17.933594 28.234375 19.171875 C 28.234375 20.410156 27.363281 21.628906 25.777344 22.625 Z M 25.777344 22.625 "/></g><path style=" stroke:none;fill-rule:nonzero;fill:#ffffff;fill-opacity:1;" d="M 18.863281 18.597656 C 18.863281 17.113281 17.660156 15.910156 16.179688 15.910156 C 14.695312 15.910156 13.492188 17.113281 13.492188 18.597656 C 13.492188 20.078125 14.695312 21.285156 16.179688 21.285156 C 17.660156 21.285156 18.863281 20.078125 18.863281 18.597656 Z M 18.863281 18.597656 "/></g></svg>